<?xml version="1.0" encoding="utf-8"?>
<!-- Generator: Adobe Illustrator 24.1.1, SVG Export Plug-In . SVG Version: 6.00 Build 0)  -->
<svg version="1.1" id="Layer_1" xmlns="http://www.w3.org/2000/svg" xmlns:xlink="http://www.w3.org/1999/xlink" x="0px" y="0px"
	 viewBox="0 0 512 512" style="enable-background:new 0 0 512 512;" xml:space="preserve">
<g id="XMLID_1_">
	<path id="XMLID_8_" d="M256,0C114.5,0,0,114.5,0,256s114.5,256,256,256s256-114.5,256-256S397.5,0,256,0z M256,482.2
		C131.3,482.2,29.8,380.7,29.8,256S131.3,29.8,256,29.8S482.2,131.3,482.2,256S380.7,482.2,256,482.2z M391.9,270.9
		c0,74.5-60.5,135.9-135.9,135.9s-135.9-60.5-135.9-135.9c0-8.4,6.5-14.9,14.9-14.9c8.4,0,14.9,6.5,14.9,14.9
		c0,57.7,47.5,105.2,105.2,105.2s105.2-47.5,105.2-105.2c0-8.4,6.5-14.9,14.9-14.9C383.5,256,391.9,262.5,391.9,270.9z M135.9,165.7
		c0-16.8,13-29.8,29.8-29.8s29.8,13,29.8,29.8s-13,29.8-29.8,29.8S135.9,182.5,135.9,165.7z M316.5,165.7c0-16.8,13-29.8,29.8-29.8
		s29.8,13,29.8,29.8s-13,29.8-29.8,29.8S316.5,182.5,316.5,165.7z"/>
</g>
</svg>
