<?xml version="1.0" encoding="utf-8"?>
<!-- Generator: Adobe Illustrator 21.0.0, SVG Export Plug-In . SVG Version: 6.00 Build 0)  -->
<svg version="1.1" id="Layer_1" xmlns="http://www.w3.org/2000/svg" xmlns:xlink="http://www.w3.org/1999/xlink" x="0px" y="0px"
	 viewBox="0 0 512 512" style="enable-background:new 0 0 512 512;" xml:space="preserve">
<g>
	<path d="M256,0C114.8,0,0,114.8,0,256s114.8,256,256,256s256-114.8,256-256S397.2,0,256,0z M256,39.4
		c119.4,0,216.6,97.2,216.6,216.6S375.4,472.6,256,472.6S39.4,375.4,39.4,256S136.6,39.4,256,39.4z M157.5,177.2
		c-41.2,0-71.1,23.8-71.1,23.8l24,31.2c0,0,21.3-15.6,47.1-15.6s47.1,15.6,47.1,15.6l24-31.2C228.6,201,198.8,177.2,157.5,177.2z
		 M354.5,177.2c-41.2,0-71.1,23.8-71.1,23.8l24,31.2c0,0,21.3-15.6,47.1-15.6s47.1,15.6,47.1,15.6l24-31.2
		C425.5,201,395.7,177.2,354.5,177.2z M153.8,315.1l-33.9,19.7c3.4,5.9,7.2,11.5,11.3,16.9s8.6,10.5,13.3,15.3
		c9.5,9.6,20.2,18,31.9,24.9c5.8,3.5,11.9,6.5,18.2,9.2c6.3,2.7,12.8,5,19.5,6.8s13.5,3.3,20.5,4.2c7,1,14.1,1.5,21.4,1.5
		s14.4-0.5,21.4-1.5c35-4.8,66.3-21.2,90-45.2c4.8-4.8,9.2-9.9,13.3-15.3s7.9-11,11.3-16.9l-33.9-19.7c-17.9,30.8-49.1,53-86,58
		c-5.3,0.7-10.7,1.1-16.2,1.1s-10.9-0.4-16.2-1.1c-5.3-0.7-10.4-1.8-15.5-3.2c-10-2.8-19.5-6.9-28.3-12
		c-8.8-5.2-16.8-11.5-23.9-18.7c-3.6-3.6-6.9-7.4-10-11.5C159.2,323.7,156.4,319.5,153.8,315.1z"/>
</g>
</svg>
